<?xml version="1.0" encoding="UTF-8" standalone="no"?>
<svg
   xmlns:dc="http://purl.org/dc/elements/1.1/"
   xmlns:cc="http://creativecommons.org/ns#"
   xmlns:rdf="http://www.w3.org/1999/02/22-rdf-syntax-ns#"
   xmlns:svg="http://www.w3.org/2000/svg"
   xmlns="http://www.w3.org/2000/svg"
   xmlns:sodipodi="http://sodipodi.sourceforge.net/DTD/sodipodi-0.dtd"
   xmlns:inkscape="http://www.inkscape.org/namespaces/inkscape"
   version="1.0"
   width="750.000000pt"
   height="1000.000000pt"
   viewBox="0 0 750.000000 1000.000000"
   preserveAspectRatio="xMidYMid meet"
   id="svg2997"
   inkscape:version="0.48.5 r10040"
   sodipodi:docname="fposter_small_wall_texture_product_750x1000.svg">
  <metadata
     id="metadata3007">
    <rdf:RDF>
      <cc:Work
         rdf:about="">
        <dc:format>image/svg+xml</dc:format>
        <dc:type
           rdf:resource="http://purl.org/dc/dcmitype/StillImage" />
        <dc:title></dc:title>
      </cc:Work>
    </rdf:RDF>
  </metadata>
  <defs
     id="defs3005" />
  <sodipodi:namedview
     pagecolor="#ffffff"
     bordercolor="#666666"
     borderopacity="1"
     objecttolerance="10"
     gridtolerance="10"
     guidetolerance="10"
     inkscape:pageopacity="0"
     inkscape:pageshadow="2"
     inkscape:window-width="1920"
     inkscape:window-height="1018"
     id="namedview3003"
     showgrid="false"
     inkscape:zoom="0.6648"
     inkscape:cx="468.75"
     inkscape:cy="625"
     inkscape:window-x="-8"
     inkscape:window-y="76"
     inkscape:window-maximized="1"
     inkscape:current-layer="svg2997" />
  <g
     transform="translate(0.000000,1000.000000) scale(0.100000,-0.100000)"
     fill="#000000"
     stroke="none"
     id="g2999">
    <path
       d="M3629 7530 c-68 -36 -128 -119 -271 -375 -77 -137 -355 -632 -618 -1100 -262 -467 -773 -1376 -1135 -2020 -361 -643 -677 -1204 -700 -1245 -59 -101 -75 -142 -75 -190 0 -56 22 -94 67 -116 37 -18 118 -19 2838 -22 1952 -2 2811 0 2837 8 55 16 88 61 88 120 0 68 28 14 -312 620 -64 113 -396 705 -738 1315 -342 611 -668 1191 -724 1290 -56 99 -282 501 -501 893 -269 479 -413 726 -439 752 -61 62 -127 90 -210 90 -50 -1 -82 -7 -107 -20z m976 -1637 c467 -824 1044 -1842 1283 -2262 238 -420 431 -765 429 -767 -2 -3 -71 -13 -153 -23 -753 -97 -1398 -63 -1777 95 -314 130 -522 342 -606 619 -20 64 -21 78 -11 160 38 321 181 508 427 560 134 29 370 13 506 -34 76 -26 152 -70 210 -122 48 -41 89 -50 95 -19 1 8 -30 65 -69 125 -251 385 -557 604 -969 692 -130 28 -481 25 -646 -5 -337 -61 -690 -188 -1081 -389 -90 -46 -163 -81 -163 -77 0 7 -49 -80 707 1254 335 591 688 1213 784 1382 96 169 177 308 180 308 3 0 387 -674 854 -1497z"
       id="path3001" />
  </g>
  <path
     style="fill:#0000ff"
     d="m 127.53399,939.78524 c -14.68966,-0.80865 -15.75561,-1.09081 -19.1787,-5.0767 -4.95584,-5.77063 -4.64711,-12.63417 1.08072,-24.02641 2.5879,-5.14713 41.41472,-74.67882 86.28182,-154.51486 44.8671,-79.83604 115.61122,-205.73857 157.20916,-279.7834 41.59793,-74.04482 78.65355,-139.36522 82.34583,-145.15643 12.23736,-19.19394 18.22089,-23.61613 31.95423,-23.61613 14.80485,0 23.04939,5.97218 34.6784,25.12034 17.90088,29.47531 313.24956,555.50307 325.7615,580.19419 3.7969,7.49284 4.6335,15.99308 2.0493,20.82174 -4.224,7.8926 16.83404,7.45958 -348.4818,7.16582 -185.98046,-0.14952 -345.14567,-0.65723 -353.70046,-1.12816 l 0,0 z m 617.99098,-41.35003 c 23.09741,-2.47909 45.12635,-5.46844 45.12635,-6.12369 0,-0.92969 -66.78259,-119.3913 -146.71096,-260.24172 C 511.83825,399.2784 470.36363,326.75128 469.10396,326.33138 c -1.44927,-0.48309 -9.16386,12.76696 -75.54182,129.74564 -94.6764,166.84929 -134.10424,237.2081 -133.34994,237.96239 0.40454,0.40454 13.13861,-5.15474 28.29792,-12.35396 48.06661,-22.82704 78.49385,-33.97997 115.55877,-42.35744 17.75259,-4.01246 20.77676,-4.24911 54.15163,-4.23771 38.90274,0.0135 42.14127,0.51402 68.55502,10.59964 15.62187,5.96492 26.87595,12.39693 42.2656,24.15592 18.46789,14.11101 39.80149,38.78234 51.5556,59.62165 4.35352,7.7185 4.5754,8.64922 2.06203,8.64922 -1.54905,0 -6.52115,-2.80408 -11.04913,-6.23128 -16.38827,-12.40418 -34.79597,-17.66006 -63.48499,-18.12659 -24.11907,-0.39221 -37.39207,3.31062 -51.40526,14.34075 -18.62157,14.6575 -31.51825,56.88451 -24.22911,79.33231 11.43653,35.22016 39.24301,62.16464 80.49558,78.00021 17.68976,6.79055 48.29582,12.92968 78.21901,15.68959 15.01647,1.38502 93.58926,-0.46143 114.3201,-2.68651 l 0,0 z"
     id="path3009"
     inkscape:connector-curvature="0"
     transform="scale(0.8,0.8)" />
</svg>
